PathFileType	4	(X/Y/Z)	Walk8.trc
DataRate	CameraRate	NumFrames	NumMarkers	Units	OrigDataRate	OrigDataStartFrame	OrigNumFrames
200.000000	200.000000	7	54	mm	200.000000	332	521
Frame#	Times		RBHD		C7		RASI		RACR1		RUA1		RElbow		RFA1		RWRU		RCAR		LACR1		LElbowM		LFA1		LWRR		RTH1		RTH3		RTH2		RLFC		RTB1		RTB3		RTB2		RTB4		RMT1		RMT5		LTH2		RTH4		LWRU		LTH3		LTH4		LElbow		LPSI		RPSI		LTB1		LLFC		T10		RWRR		LTB4		LTB3		LBHD		LTH1		LMT1		RBack		LCAL		CLAV		LTB2		LLMAL		LToe		RLMAL		LMT5		RMMAL		RElbowM		RToe		LUA1		LCAR		RCAL
			X1	Y1	Z1	X2	Y2	Z2	X3	Y3	Z3	X4	Y4	Z4	X5	Y5	Z5	X6	Y6	Z6	X7	Y7	Z7	X8	Y8	Z8	X9	Y9	Z9	X10	Y10	Z10	X11	Y11	Z11	X12	Y12	Z12	X13	Y13	Z13	X14	Y14	Z14	X15	Y15	Z15	X16	Y16	Z16	X17	Y17	Z17	X18	Y18	Z18	X19	Y19	Z19	X20	Y20	Z20	X21	Y21	Z21	X22	Y22	Z22	X23	Y23	Z23	X24	Y24	Z24	X25	Y25	Z25	X26	Y26	Z26	X27	Y27	Z27	X28	Y28	Z28	X29	Y29	Z29	X30	Y30	Z30	X31	Y31	Z31	X32	Y32	Z32	X33	Y33	Z33	X34	Y34	Z34	X35	Y35	Z35	X36	Y36	Z36	X37	Y37	Z37	X38	Y38	Z38	X39	Y39	Z39	X40	Y40	Z40	X41	Y41	Z41	X42	Y42	Z42	X43	Y43	Z43	X44	Y44	Z44	X45	Y45	Z45	X46	Y46	Z46	X47	Y47	Z47	X48	Y48	Z48	X49	Y49	Z49	X50	Y50	Z50	X51	Y51	Z51	X52	Y52	Z52	X53	Y53	Z53	X54	Y54	Z54

332	1.66	188.68	1562.3	321.71	163.33	1422.8	264.68	247.01	917.19	419.3	237.37	1387.6	408.79	229.93	1209.6	513.4	226.79	1084	566.05	351.96	994.55	569.3	428.53	893.48	549.92	497.1	888.13	547.42	183.97	1398.3	88.645	37.482	1092.6	95.605	72.63	942.98	-32.77	95.662	822.66	-4.752	159.64	719.51	454.71	118.89	535.87	430.21	206.37	618.71	416.59	84.392	436.91	413.87	57.158	337.97	330.07	-72.348	199.01	327.44	-14.579	273.24	402.65	-4.4764	269.4	329.24	-97.196	39.579	273.35	-117.64	37.5	361.55	371.07	681.56	115.42	139.85	626.23	445.45	17.109	835.48	-24.605	349.38	568.11	103.17	309.14	646.49	82.733	45.459	1092.4	16.487	86.227	942.17	195.51	74.863	943.01	299.59	447.74	384.19	189.32	388.05	461.8	125.96	70.643	1112.4	259.5	472.24	944.31	509.54	449.75	291.49	197.35	454.18	199.51	205.04	191.53	1558.7	183.1	266.18	734.07	72.496	564.71	43.089	252.58	98.611	1333.7	371.14	356.56	27.073	228.38	298.13	1343	245.57	423.18	284.92	130.76	400.22	69.871	181.69	608.03	48.389	235.09	-182.72	153.1	368.36	535.94	36.587	171.25	-155.36	152.88	280.96	206.76	1036.8	479.34	-48.719	23.531	290.28	102.63	1208.7	15.167	68.061	774.3	-50.985	-250.03	144.93	327.15
333	1.665	195.72	1563	320.23	170.64	1423.5	263.6	253.7	917.36	418.99	244.81	1388.6	407.86	236.29	1210.5	512.7	232.06	1085	565.36	356.31	994.23	568.9	431.85	892.35	549.8	500.35	886.28	547.46	191.44	1398.4	87.677	45.359	1092.5	94.968	80.321	942.97	-33.45	103.25	822.57	-5.5427	167.47	719.15	454.05	128.88	535.01	430.09	215.43	618.77	416.49	95.149	436.16	414.01	66.907	337.34	330.41	-65.139	200.76	328.05	-6.3147	274.27	403.1	3.9815	269.9	329.74	-95.686	40.456	273.58	-115.59	38.978	361.48	377.96	682.07	115.24	148.74	625.64	445.04	24.678	835.52	-25.247	355.83	568.67	103.23	315.87	647.15	82.742	53.339	1092.3	15.829	93.156	942.95	195.32	81.746	943.4	299.44	452.97	383.65	189.28	394.13	462.06	125.76	77.635	1113.1	259.37	476.17	942.65	509.42	453.65	290.9	197.38	456.84	198.84	205.11	198.67	1559	181.64	273.24	734.83	72.194	565.48	41.572	252.76	105.94	1334.7	370.39	356.72	27.556	228.21	305.39	1343.6	244.77	427.26	284.68	130.66	401.12	69.88	181.61	609.13	45.949	235.34	-176.46	157.22	368.75	536.61	35.389	170.94	-148.86	156.14	281.57	211.79	1037.9	478.6	-48.172	23.724	290.94	110.46	1208.6	14.432	75.525	774.34	-51.852	-243.52	151.34	327.42
334	1.67	202.8	1563.7	318.78	177.93	1424.2	262.56	260.32	917.59	418.66	252.22	1389.5	406.96	242.64	1211.5	512	237.27	1086	564.67	360.54	993.88	568.48	434.96	891.15	549.67	503.39	884.32	547.49	198.92	1398.7	86.752	53.264	1092.6	94.315	88.129	943.04	-34.132	110.99	822.58	-6.3214	175.35	718.8	453.38	139.1	534.17	429.97	224.64	618.91	416.4	106.21	435.41	414.17	77.031	336.74	330.76	-57.516	202.57	328.66	2.3426	275.35	403.54	12.832	270.43	330.26	-93.765	41.493	273.86	-113.14	40.66	361.44	384.7	682.51	115.03	157.77	625.07	444.63	32.402	835.63	-25.906	362.05	569.19	103.25	322.43	647.8	82.709	61.264	1092.4	15.16	100.04	943.78	195.12	88.568	943.83	299.28	457.95	383.11	189.24	399.93	462.28	125.56	84.58	1113.9	259.21	479.93	940.89	509.3	457.34	290.34	197.41	459.33	198.22	205.17	205.81	1559.2	180.22	280.21	735.61	71.865	566.16	40.285	252.92	113.24	1335.9	369.68	356.87	28.005	228.05	312.63	1344.3	244.01	431.11	284.44	130.57	401.93	69.919	181.52	610.12	43.79	235.56	-169.75	161.41	369.13	537.22	34.398	170.61	-141.93	159.48	282.17	216.76	1039.2	477.83	-47.253	24.008	291.7	118.33	1208.7	13.699	83.173	774.45	-52.707	-236.53	157.81	327.67
335	1.675	209.91	1564.5	317.38	185.2	1425	261.58	266.88	917.88	418.33	259.61	1390.5	406.09	248.96	1212.5	511.32	242.43	1087	563.96	364.64	993.5	568.06	437.88	889.9	549.54	506.22	882.26	547.53	206.4	1399	85.872	61.189	1092.8	93.646	96.052	943.19	-34.817	118.88	822.67	-7.086	183.27	718.48	452.7	149.51	533.35	429.86	233.97	619.13	416.33	117.57	434.68	414.33	87.514	336.17	331.1	-49.483	204.44	329.26	11.388	276.47	403.99	22.065	271	330.79	-91.377	42.697	274.2	-110.25	42.55	361.44	391.29	682.9	114.81	166.93	624.52	444.21	40.282	835.79	-26.583	368.02	569.67	103.23	328.82	648.44	82.642	69.229	1092.5	14.479	106.87	944.66	194.9	95.328	944.31	299.09	462.67	382.58	189.21	405.46	462.47	125.38	91.473	1114.8	259.04	483.52	939.04	509.19	460.8	289.8	197.45	461.65	197.63	205.23	212.94	1559.6	178.84	287.08	736.43	71.514	566.76	39.208	253.07	120.52	1337.1	369	357.01	28.413	227.89	319.84	1345	243.3	434.72	284.2	130.51	402.66	69.98	181.45	611.01	41.903	235.76	-162.59	165.65	369.5	537.76	33.599	170.27	-134.56	162.87	282.76	221.65	1040.5	477.05	-45.893	24.395	292.56	126.23	1208.9	12.969	91.007	774.64	-53.55	-229.06	164.3	327.92
336	1.68	217.06	1565.4	316.02	192.44	1425.9	260.64	273.37	918.22	417.98	266.95	1391.6	405.26	255.26	1213.5	510.66	247.53	1088.1	563.24	368.62	993.1	567.64	440.61	888.59	549.41	508.84	880.09	547.57	213.88	1399.5	85.04	69.128	1093	92.959	104.09	943.42	-35.504	126.93	822.86	-7.8344	191.22	718.18	452.02	160.11	532.56	429.76	243.41	619.44	416.29	129.18	433.98	414.5	98.333	335.64	331.44	-41.051	206.36	329.85	20.813	277.64	404.42	31.666	271.61	331.31	-88.466	44.07	274.61	-106.85	44.646	361.5	397.72	683.21	114.58	176.18	624	443.8	48.318	836.02	-27.281	373.76	570.12	103.19	335.04	649.07	82.544	77.232	1092.7	13.786	113.66	945.59	194.66	102.03	944.85	298.88	467.13	382.05	189.2	410.7	462.61	125.23	98.316	1115.7	258.85	486.94	937.09	509.07	464.04	289.28	197.51	463.8	197.07	205.3	220.08	1559.9	177.5	293.87	737.26	71.147	567.29	38.325	253.21	127.76	1338.3	368.37	357.14	28.776	227.75	327.01	1345.8	242.64	438.1	283.96	130.48	403.31	70.056	181.38	611.8	40.275	235.95	-154.99	169.93	369.85	538.23	32.974	169.95	-126.76	166.31	283.33	226.49	1041.9	476.25	-44.025	24.898	293.52	134.15	1209.1	12.243	99.029	774.9	-54.377	-221.13	170.78	328.17
337	1.685	224.23	1566.4	314.72	199.64	1426.8	259.76	279.79	918.61	417.63	274.24	1392.7	404.47	261.53	1214.6	510.01	252.58	1089.2	562.51	372.48	992.68	567.21	443.15	887.23	549.27	511.26	877.84	547.61	221.36	1400	84.259	77.075	1093.3	92.252	112.24	943.72	-36.193	135.12	823.14	-8.5649	199.19	717.93	451.33	170.85	531.83	429.67	252.95	619.83	416.26	141.03	433.33	414.67	109.47	335.19	331.77	-32.227	208.33	330.42	30.609	278.85	404.84	41.619	272.28	331.82	-84.979	45.612	275.1	-102.91	46.943	361.61	404	683.47	114.35	185.52	623.52	443.38	56.509	836.3	-28	379.25	570.53	103.13	341.09	649.7	82.422	85.268	1092.9	13.079	120.4	946.55	194.4	108.66	945.42	298.65	471.32	381.52	189.21	415.68	462.72	125.09	105.11	1116.6	258.63	490.21	935.05	508.95	467.06	288.77	197.59	465.79	196.54	205.38	227.2	1560.3	176.23	300.56	738.13	70.769	567.73	37.613	253.35	134.95	1339.6	367.77	357.24	29.092	227.62	334.14	1346.6	242.03	441.26	283.71	130.47	403.89	70.142	181.33	612.49	38.891	236.13	-146.95	174.23	370.2	538.64	32.505	169.64	-118.55	169.78	283.89	231.26	1043.3	475.43	-41.584	25.53	294.59	142.1	1209.4	11.522	107.24	775.22	-55.186	-212.75	177.18	328.41
338	1.69	231.44	1567.4	313.47	206.81	1427.8	258.93	286.16	919.04	417.27	281.47	1393.8	403.73	267.76	1215.6	509.38	257.59	1090.4	561.78	376.23	992.23	566.77	445.51	885.82	549.13	513.48	875.49	547.64	228.82	1400.5	83.528	85.025	1093.6	91.524	120.5	944.1	-36.882	143.47	823.5	-9.2757	207.19	717.73	450.64	181.73	531.17	429.58	262.55	620.33	416.26	153.09	432.75	414.85	120.89	334.81	332.08	-23.024	210.36	330.97	40.76	280.11	405.25	51.905	273.02	332.33	-80.866	47.317	275.66	-98.392	49.428	361.79	410.14	683.65	114.14	194.94	623.1	442.97	64.854	836.63	-28.74	384.52	570.91	103.06	346.99	650.32	82.281	93.333	1093.3	12.359	127.09	947.56	194.12	115.24	946.04	298.38	475.24	380.99	189.24	420.38	462.78	124.97	111.84	1117.6	258.38	493.31	932.93	508.84	469.85	288.27	197.7	467.62	196.04	205.48	234.32	1560.8	175	307.17	739.01	70.386	568.1	37.054	253.49	142.09	1340.9	367.21	357.33	29.361	227.51	341.23	1347.4	241.48	444.2	283.45	130.49	404.39	70.232	181.3	613.07	37.735	236.3	-138.47	178.53	370.53	538.99	32.173	169.36	-109.92	173.26	284.42	235.97	1044.8	474.6	-38.505	26.299	295.77	150.05	1209.8	10.807	115.64	775.61	-55.977	-203.94	183.48	328.66
